<?xml version="1.0" encoding="utf-8"?>
<!-- Generator: Adobe Illustrator 25.0.0, SVG Export Plug-In . SVG Version: 6.00 Build 0)  -->
<svg version="1.1" id="Layer_1" xmlns="http://www.w3.org/2000/svg" xmlns:xlink="http://www.w3.org/1999/xlink" x="0px" y="0px"
	 viewBox="0 0 800 800" style="enable-background:new 0 0 800 800;" xml:space="preserve">
<style type="text/css">
	.st0{fill:#009444;stroke:#00A14B;stroke-miterlimit:10;}
	.st1{fill:none;}
	.st2{fill:#009444;}
</style>
<g>
	<g>
		<path class="st0" d="M242.107,447.876l136.824-253.331c1.078-1.995,3.844-2.6,5.771-1.261l0,0
			c0.485,0.336,0.877,0.774,1.145,1.276l90.584,169.702c1.275,2.389-0.619,5.183-3.496,5.159l-109.831-0.9
			c-3.436-0.028-5.124-3.885-2.679-6.12l34.959-31.943c0.737-0.673,1.735-1.044,2.77-1.03l1.421,0.019
			c2.905,0.04,4.816-2.794,3.501-5.192l-17.676-32.254c-1.428-2.605-5.445-2.612-6.882-0.011l-17.989,32.546
			c-1.305,2.36,0.523,5.168,3.387,5.204l5.5,0.068c3.407,0.042,5.09,3.85,2.693,6.091l-64.351,60.157l-59.443,55.927
			C245.229,454.885,240.14,451.518,242.107,447.876z"/>
		<polygon class="st0" points="434.08,379.337 447.952,408.788 500.942,408.617 486.053,379.679 		"/>
		<polygon class="st0" points="506.078,420.392 453.827,420.392 533.452,469.704 		"/>
	</g>
	<g>
		<rect x="252.646" y="469.704" class="st1" width="284.267" height="52.395"/>
		<path class="st2" d="M273.985,469.774h28.041l-10.323,49.921h-14.714l2.08-10.056h-12.634l-2.08,10.056h-14.637l7.626-37.013
			c0.77-3.565,2.773-6.607,6.009-9.128C266.589,471.035,270.133,469.774,273.985,469.774z M268.207,501.438h12.557l4.93-23.819
			h-7.935c-1.284,0-2.465,0.417-3.543,1.248c-1.079,0.833-1.747,1.843-2.003,3.031L268.207,501.438z"/>
		<path class="st2" d="M341.389,470.167c2.875-0.784,5.996-1.177,9.36-1.177c3.363,0,6.329,0.381,8.897,1.141
			c2.567,0.762,4.557,1.748,5.97,2.96c1.412,1.212,2.581,2.557,3.505,4.029c0.925,1.475,1.515,2.948,1.772,4.422
			c0.256,1.474,0.424,2.816,0.501,4.029c0.077,1.212,0.038,2.199-0.116,2.959l-0.154,1.142l-2.08,10.055
			c-0.052,0.286-0.154,0.678-0.308,1.177c-0.154,0.5-0.54,1.462-1.156,2.889s-1.336,2.794-2.157,4.101
			c-0.822,1.309-2.017,2.758-3.583,4.351c-1.567,1.593-3.3,2.959-5.2,4.101c-1.9,1.141-4.302,2.104-7.203,2.888
			c-2.902,0.785-6.022,1.177-9.36,1.177c-2.619,0-5.007-0.238-7.164-0.713c-2.157-0.475-3.942-1.105-5.354-1.89
			c-1.413-0.785-2.646-1.699-3.698-2.746c-1.053-1.045-1.862-2.14-2.427-3.28c-0.565-1.141-1.015-2.282-1.348-3.423
			c-0.334-1.142-0.526-2.234-0.578-3.28c-0.05-1.046-0.077-1.962-0.077-2.746s0.052-1.414,0.154-1.89l0.154-0.714l2.08-10.055
			c0.051-0.285,0.141-0.678,0.27-1.177c0.128-0.499,0.501-1.462,1.117-2.889c0.616-1.426,1.348-2.792,2.195-4.101
			c0.848-1.307,2.054-2.757,3.621-4.35c1.566-1.593,3.299-2.96,5.2-4.102C336.125,471.914,338.513,470.951,341.389,470.167z
			 M356.103,491.169c0.05-0.189,0.102-0.463,0.154-0.82c0.051-0.356,0.116-1.033,0.193-2.032c0.077-0.998,0.102-1.948,0.077-2.853
			c-0.026-0.902-0.18-1.913-0.462-3.031c-0.283-1.116-0.681-2.079-1.194-2.888c-0.514-0.808-1.259-1.485-2.234-2.032
			c-0.976-0.546-2.132-0.82-3.466-0.82c-1.901,0-3.634,0.499-5.2,1.497c-1.567,0.999-2.812,2.211-3.736,3.638
			c-0.925,1.426-1.708,2.841-2.35,4.243c-0.643,1.402-1.092,2.603-1.348,3.602l-0.385,1.497l-1.464,7.061
			c0,0.19-0.038,0.464-0.115,0.82s-0.154,1.034-0.231,2.032c-0.077,0.998-0.09,1.95-0.038,2.853c0.05,0.903,0.205,1.914,0.462,3.031
			c0.256,1.117,0.642,2.067,1.156,2.853c0.513,0.784,1.258,1.45,2.234,1.997c0.975,0.547,2.157,0.819,3.543,0.819
			c1.079,0,2.105-0.153,3.082-0.463c0.975-0.309,1.835-0.749,2.581-1.319c0.744-0.571,1.451-1.213,2.119-1.926
			c0.667-0.713,1.245-1.474,1.733-2.282c0.488-0.808,0.925-1.615,1.31-2.425c0.385-0.808,0.705-1.568,0.963-2.282
			c0.256-0.713,0.474-1.343,0.655-1.89c0.179-0.546,0.32-0.986,0.423-1.319l0.077-0.499L356.103,491.169z"/>
		<path class="st2" d="M426.051,469.774h14.714l-10.4,49.921h-28.04c-3.852,0-6.87-1.259-9.052-3.779
			c-2.183-2.52-2.915-5.563-2.196-9.129l7.704-37.013h14.714l-7.857,37.797c-0.258,1.189-0.014,2.2,0.731,3.031
			c0.743,0.832,1.759,1.248,3.043,1.248h7.935L426.051,469.774z"/>
		<path class="st2" d="M494.072,469.774c3.852,0,6.882,1.261,9.09,3.78c2.208,2.521,2.928,5.562,2.157,9.128l-7.626,37.013h-14.714
			l7.857-37.797c0.204-1.188-0.052-2.198-0.771-3.031c-0.72-0.831-1.721-1.248-3.004-1.248h-7.935l-8.705,42.076h-14.714
			l10.322-49.921H494.072z"/>
	</g>
</g>
<g>
</g>
<g>
</g>
<g>
</g>
<g>
</g>
<g>
</g>
<g>
</g>
</svg>
